<svg xmlns="http://www.w3.org/2000/svg" viewBox="0 0 34.14 49.77"><defs><style>.cls-1{fill:#d0a91a;}.cls-2{fill:#3e2e48;}</style></defs><g id="Vrstva_2" data-name="Vrstva 2"><g id="Vrstva_1-2" data-name="Vrstva 1"><path class="cls-1" d="M20.41,32.28v1.44c0,.5,0,1-.05,1.43s-.05,1.3-.05,2.22,0,1.93-.09,3-.17,2.16-.32,3.26a14.55,14.55,0,0,1-.7,3,6.27,6.27,0,0,1-1.28,2.22,2.81,2.81,0,0,1-2,.9A1.79,1.79,0,0,1,14.36,49a6.27,6.27,0,0,1-1-2,14.43,14.43,0,0,1-.61-2.78c-.13-1-.22-2-.29-3s-.1-1.84-.1-2.66v-4c0-1,0-2,.1-3.09s.19-2.22.36-3.36A16.94,16.94,0,0,1,13.56,25a6.59,6.59,0,0,1,1.33-2.29A2.75,2.75,0,0,1,17,21.85a2.16,2.16,0,0,1,2,1.32,11.3,11.3,0,0,1,1,3.07,20.83,20.83,0,0,1,.39,3.48C20.39,30.88,20.41,31.73,20.41,32.28Z"/><path class="cls-2" d="M33.43,11.3C31,9.08,23.53,12,23,12.2l-.39.16.2-.21c.35-.38,5.78-6.41,4.27-9.22A2.31,2.31,0,0,0,25,1.78c-3.37.06-6.47,7.11-6.69,7.6,0,.12-.1.24-.15.38,0-.13,0-.22,0-.29,0-.5-.71-8.4-3.88-9.37A2.38,2.38,0,0,0,12,.67c-2.34,2.29.74,9.35,1,9.85.06.11.11.23.17.36l-.22-.19c-.41-.33-6.79-5.46-9.76-4a2.13,2.13,0,0,0-1.21,2c.05,3.18,7.52,6.12,8,6.32l.39.14-.3,0c-.53,0-8.88.67-9.91,3.67A2.06,2.06,0,0,0,.71,21c2.42,2.22,9.9-.69,10.42-.9l.38-.16-.19.21c-.35.39-5.79,6.42-4.27,9.22a2.31,2.31,0,0,0,2.07,1.15c3.37-.05,6.47-7.11,6.69-7.6l.15-.37c0,.12,0,.22,0,.28,0,.51.71,8.4,3.88,9.37a2.35,2.35,0,0,0,2.32-.57c2.35-2.29-.74-9.35-1-9.84l-.16-.37.22.19c.41.33,6.79,5.46,9.76,4a2.12,2.12,0,0,0,1.21-2c0-3.19-7.52-6.12-8-6.32l-.39-.15.3,0c.53,0,8.88-.67,9.91-3.67A2.07,2.07,0,0,0,33.43,11.3Z"/><ellipse class="cls-2" cx="16.77" cy="16.23" rx="3.37" ry="3.18"/></g></g></svg>