<svg xmlns="http://www.w3.org/2000/svg" viewBox="0 0 95.75 25.42"><defs><style>.cls-1{fill:#3e2e48;}.cls-2{fill:#d0a91a;}</style></defs><g id="Vrstva_2" data-name="Vrstva 2"><g id="Vrstva_1-2" data-name="Vrstva 1"><path class="cls-1" d="M10.28,20.42A3,3,0,0,1,9.77,22a6,6,0,0,1-1.28,1.4,7.57,7.57,0,0,1-1.65,1,4.1,4.1,0,0,1-1.61.37A4,4,0,0,1,3,24.17a5.61,5.61,0,0,1-1.65-1.64,7.82,7.82,0,0,1-1-2.19A8.44,8.44,0,0,1,0,18a11.14,11.14,0,0,1,.33-2.59,9.37,9.37,0,0,1,1-2.55A6.63,6.63,0,0,1,3,10.92a4,4,0,0,1,2.45-.77A4.42,4.42,0,0,1,7,10.42a3.89,3.89,0,0,1,1.28.79,4.09,4.09,0,0,1,.88,1.21A3.69,3.69,0,0,1,9.52,14,4.82,4.82,0,0,1,9,16.13a5.4,5.4,0,0,1-1.25,1.72A6.31,6.31,0,0,1,6,19a5.92,5.92,0,0,1-2.08.5,1.37,1.37,0,0,0,.55,1,1.92,1.92,0,0,0,1.1.32,2,2,0,0,0,.93-.24,7.94,7.94,0,0,0,.87-.55q.43-.3.84-.54A1.7,1.7,0,0,1,9,19.28a1.33,1.33,0,0,1,.86.32A1,1,0,0,1,10.28,20.42ZM6.44,14.48a1.5,1.5,0,0,0-.17-.65.54.54,0,0,0-.52-.34,1.34,1.34,0,0,0-.87.28,2.23,2.23,0,0,0-.59.7,4.24,4.24,0,0,0-.37.91,4.63,4.63,0,0,0-.16.9c.23-.05.49-.11.8-.2a4.73,4.73,0,0,0,.87-.32,2.37,2.37,0,0,0,.71-.52A1.06,1.06,0,0,0,6.44,14.48Z"/><path class="cls-1" d="M21.43,8.79c0,1.18-.05,2.35-.13,3.51s-.13,2.34-.13,3.52c0,.95,0,1.9.08,2.83s.08,1.89.08,2.84c0,.26,0,.57,0,.93a6,6,0,0,1-.15,1.06,2.22,2.22,0,0,1-.43.87,1,1,0,0,1-.84.36,1.45,1.45,0,0,1-1.17-.54,2.55,2.55,0,0,1-.58-1.23,4,4,0,0,1-1.31,1.48A3.06,3.06,0,0,1,15,25a2.56,2.56,0,0,1-1.84-.75,6.4,6.4,0,0,1-1.28-1.82,9.6,9.6,0,0,1-.75-2.23,9.61,9.61,0,0,1-.25-2c0-.41,0-.87.07-1.38a12.63,12.63,0,0,1,.25-1.58,12.13,12.13,0,0,1,.46-1.56,5.74,5.74,0,0,1,.72-1.37,3.42,3.42,0,0,1,1-1A2.7,2.7,0,0,1,14.8,11a2.93,2.93,0,0,1,1.63.51,3.49,3.49,0,0,1,1.19,1.26l.21-3.85c0-.31,0-.67.07-1.08a6.21,6.21,0,0,1,.2-1.17,2.26,2.26,0,0,1,.49-1,1.19,1.19,0,0,1,1-.39,1.57,1.57,0,0,1,1.06.34,2,2,0,0,1,.56.86,4.12,4.12,0,0,1,.21,1.13C21.42,8.05,21.43,8.43,21.43,8.79ZM17.57,19.55c0-.37,0-.73,0-1.09s0-.72,0-1.09q-.13-.32-.33-.69a3.26,3.26,0,0,0-.46-.7,2.82,2.82,0,0,0-.6-.55,1.24,1.24,0,0,0-.71-.22.9.9,0,0,0-.69.27,1.65,1.65,0,0,0-.38.64,3.42,3.42,0,0,0-.15.81,7.27,7.27,0,0,0,0,.75c0,.2,0,.49.05.86a8,8,0,0,0,.18,1.16,4,4,0,0,0,.36,1,.7.7,0,0,0,.64.44A1.53,1.53,0,0,0,16,21a2.84,2.84,0,0,0,.58-.34,5.53,5.53,0,0,0,.52-.46c.17-.17.31-.33.44-.48Z"/><path class="cls-1" d="M33.36,17.81a13.82,13.82,0,0,1-.26,2.64,7.28,7.28,0,0,1-.88,2.34,4.91,4.91,0,0,1-1.64,1.66,4.85,4.85,0,0,1-2.57.63,4.79,4.79,0,0,1-2.53-.62,4.74,4.74,0,0,1-1.63-1.64,7.25,7.25,0,0,1-.85-2.3,14.27,14.27,0,0,1-.25-2.62A12.72,12.72,0,0,1,23.08,15a11,11,0,0,1,.28-1.08,8.08,8.08,0,0,1,.52-1.36,5.39,5.39,0,0,1,.73-1.15,1.2,1.2,0,0,1,.91-.48,1,1,0,0,1,.76.26,1.88,1.88,0,0,1,.45.67,3,3,0,0,1,.21.85,6,6,0,0,1,0,.81,7.88,7.88,0,0,1-.08,1.09l-.18,1.07-.18,1.45a14.28,14.28,0,0,0-.08,1.46,8.1,8.1,0,0,0,0,.81,3.54,3.54,0,0,0,.17.86,2,2,0,0,0,.41.69,1,1,0,0,0,.73.28,1.41,1.41,0,0,0,1-.34,2.05,2.05,0,0,0,.55-.85A4.22,4.22,0,0,0,29.57,19c0-.39.05-.74.05-1.07a16,16,0,0,0-.14-2.09c-.1-.69-.18-1.39-.26-2.1a1.46,1.46,0,0,1,0-.34A2.4,2.4,0,0,1,29.64,12a1.78,1.78,0,0,1,.52-.47,1.32,1.32,0,0,1,1.61.19,3,3,0,0,1,.68,1A7.68,7.68,0,0,1,32.9,14c.12.5.21,1,.28,1.46s.12.92.14,1.34S33.36,17.56,33.36,17.81Z"/><path class="cls-1" d="M45.32,11.7A3.13,3.13,0,0,1,45,13.08a10.52,10.52,0,0,1-.82,1.39c-.33.46-.67.9-1,1.31s-.67.79-.94,1.13c.22.35.5.83.83,1.42s.65,1.21.95,1.88.55,1.3.77,1.93a5.24,5.24,0,0,1,.32,1.58,1.57,1.57,0,0,1-.31.93,1,1,0,0,1-.85.43,1.31,1.31,0,0,1-.82-.35,5.55,5.55,0,0,1-.83-.93,9.53,9.53,0,0,1-.79-1.27c-.25-.47-.49-.93-.7-1.38s-.4-.88-.57-1.27l-.39-1a3.16,3.16,0,0,1-.65.52c-.23.14-.45.3-.68.47,0,.34,0,.82,0,1.43a12.22,12.22,0,0,1-.21,1.82,5.12,5.12,0,0,1-.58,1.57,1.31,1.31,0,0,1-1.19.66,1.06,1.06,0,0,1-1-.57A4.27,4.27,0,0,1,35,23.49a10.08,10.08,0,0,1-.18-1.55c0-.53,0-.93,0-1.2,0-1.2,0-2.39.09-3.59s.11-2.39.12-3.59c0-.27,0-.63,0-1.07s0-.93.09-1.45a14.73,14.73,0,0,1,.21-1.57A7.1,7.1,0,0,1,35.75,8a3.13,3.13,0,0,1,.68-1,1.41,1.41,0,0,1,1-.4.91.91,0,0,1,.72.33,2.44,2.44,0,0,1,.48.84,6,6,0,0,1,.26,1.14c0,.42.09.83.12,1.24s0,.8,0,1.16v.84c0,.15,0,.36,0,.65s0,.57,0,.88,0,.59,0,.85a2.55,2.55,0,0,0,0,.56c.11,0,.28-.11.5-.33s.48-.5.77-.84.61-.7.95-1.08.68-.73,1-1.07a6.44,6.44,0,0,1,1.05-.84,1.84,1.84,0,0,1,1-.33.9.9,0,0,1,.74.34A1.28,1.28,0,0,1,45.32,11.7Z"/><path class="cls-1" d="M50.24,16.06v.72c0,.25,0,.48,0,.71s0,.64,0,1.1,0,1,0,1.49-.09,1.08-.16,1.63a7.19,7.19,0,0,1-.34,1.5,3.15,3.15,0,0,1-.63,1.1,1.31,1.31,0,0,1-1,.45.86.86,0,0,1-.76-.36,3.53,3.53,0,0,1-.51-1A7.44,7.44,0,0,1,46.48,22c-.07-.51-.11-1-.14-1.48s-.05-.91-.05-1.32v-2c0-.47,0-1,.05-1.54s.09-1.1.17-1.67a9.25,9.25,0,0,1,.38-1.55,3.28,3.28,0,0,1,.65-1.14,1.34,1.34,0,0,1,1-.44,1,1,0,0,1,1,.66,5.65,5.65,0,0,1,.5,1.52,11.57,11.57,0,0,1,.19,1.74C50.23,15.36,50.24,15.79,50.24,16.06Z"/><path class="cls-1" d="M58.65,25.42A.73.73,0,0,1,58,25a2.89,2.89,0,0,1-.36-.86,5.4,5.4,0,0,1-.15-1c0-.33,0-.59,0-.76A11.92,11.92,0,0,1,57.55,21c.05-.48.11-1,.19-1.45s.13-1,.18-1.46A11.76,11.76,0,0,0,58,16.62q0-.3,0-.63a3.17,3.17,0,0,0-.1-.64,1.2,1.2,0,0,0-.27-.5.69.69,0,0,0-.5-.2q-.21,0-.48.36a5.46,5.46,0,0,0-.48.8,6.8,6.8,0,0,0-.38.89,2.36,2.36,0,0,0-.15.67c0,.35,0,.71,0,1.08s0,.73,0,1.1V21c0,.29,0,.59-.07.89a8.46,8.46,0,0,1-.14.9,4.71,4.71,0,0,1-.22.84,2.57,2.57,0,0,1-.36.7,2,2,0,0,1-.54.5,1.32,1.32,0,0,1-.73.19,1,1,0,0,1-.78-.31,2.37,2.37,0,0,1-.5-.82A5,5,0,0,1,52,22.74c-.06-.41-.1-.82-.12-1.21s0-.76,0-1.09,0-.6,0-.79V18.51c0-.62,0-1.22,0-1.82s0-1.2,0-1.79c0-.33,0-.74,0-1.24A7.21,7.21,0,0,1,52,12.19,3.31,3.31,0,0,1,52.56,11a1.3,1.3,0,0,1,1.11-.51.89.89,0,0,1,.6.22,2.41,2.41,0,0,1,.46.53,3.89,3.89,0,0,1,.33.68c.09.24.15.45.2.63a4.73,4.73,0,0,1,.56-.65,3.65,3.65,0,0,1,.72-.56,4.08,4.08,0,0,1,.9-.39,4,4,0,0,1,1.14-.14,2.74,2.74,0,0,1,1.88.59,3.52,3.52,0,0,1,1,1.48,6.48,6.48,0,0,1,.39,1.9c0,.68.07,1.29.07,1.84,0,.28,0,.69-.07,1.23s-.12,1.14-.22,1.79a19,19,0,0,1-.42,2,12.21,12.21,0,0,1-.61,1.88,4.77,4.77,0,0,1-.84,1.38A1.46,1.46,0,0,1,58.65,25.42Z"/><path class="cls-1" d="M73.44,8.79c0,1.18,0,2.35-.13,3.51s-.13,2.34-.13,3.52c0,.95,0,1.9.09,2.83s.08,1.89.08,2.84c0,.26,0,.57,0,.93a5.21,5.21,0,0,1-.16,1.06,2.21,2.21,0,0,1-.42.87,1,1,0,0,1-.84.36,1.48,1.48,0,0,1-1.18-.54,2.64,2.64,0,0,1-.58-1.23,4,4,0,0,1-1.3,1.48A3.09,3.09,0,0,1,67,25a2.52,2.52,0,0,1-1.83-.75,6.4,6.4,0,0,1-1.28-1.82,10.12,10.12,0,0,1-.76-2.23,10.23,10.23,0,0,1-.24-2c0-.41,0-.87.07-1.38a12.59,12.59,0,0,1,.24-1.58,12.17,12.17,0,0,1,.47-1.56,5.74,5.74,0,0,1,.72-1.37,3.42,3.42,0,0,1,1-1A2.65,2.65,0,0,1,66.82,11a3,3,0,0,1,1.63.51,3.46,3.46,0,0,1,1.18,1.26l.22-3.85c0-.31,0-.67.07-1.08a6.21,6.21,0,0,1,.2-1.17,2.37,2.37,0,0,1,.48-1,1.21,1.21,0,0,1,1-.39,1.58,1.58,0,0,1,1.07.34,2,2,0,0,1,.56.86,4.53,4.53,0,0,1,.21,1.13Q73.44,8.25,73.44,8.79ZM69.59,19.55c0-.37,0-.73,0-1.09s0-.72,0-1.09q-.14-.32-.33-.69a3.68,3.68,0,0,0-.46-.7,2.82,2.82,0,0,0-.6-.55,1.27,1.27,0,0,0-.72-.22.9.9,0,0,0-.68.27,1.54,1.54,0,0,0-.38.64,3.42,3.42,0,0,0-.15.81,7.27,7.27,0,0,0,0,.75c0,.2,0,.49,0,.86a9.55,9.55,0,0,0,.17,1.16,4,4,0,0,0,.37,1,.7.7,0,0,0,.64.44,1.53,1.53,0,0,0,.62-.13,2.84,2.84,0,0,0,.58-.34,5.53,5.53,0,0,0,.52-.46l.44-.48Z"/><path class="cls-1" d="M84.93,20.42A3,3,0,0,1,84.42,22a6,6,0,0,1-1.28,1.4,7.51,7.51,0,0,1-1.64,1,4.18,4.18,0,0,1-1.62.37,4,4,0,0,1-2.23-.64A5.61,5.61,0,0,1,76,22.53a7.53,7.53,0,0,1-1-2.19A8.46,8.46,0,0,1,74.65,18,11.14,11.14,0,0,1,75,15.41a9.37,9.37,0,0,1,1-2.55,6.63,6.63,0,0,1,1.7-1.94,4,4,0,0,1,2.46-.77,4.4,4.4,0,0,1,1.53.27,3.89,3.89,0,0,1,1.28.79,3.92,3.92,0,0,1,.88,1.21A3.69,3.69,0,0,1,84.17,14a5,5,0,0,1-.47,2.13,5.59,5.59,0,0,1-1.26,1.72A6.31,6.31,0,0,1,80.64,19a5.92,5.92,0,0,1-2.08.5,1.35,1.35,0,0,0,.56,1,1.88,1.88,0,0,0,1.1.32,1.94,1.94,0,0,0,.92-.24,9.16,9.16,0,0,0,.88-.55,9.88,9.88,0,0,1,.84-.54,1.64,1.64,0,0,1,.84-.25,1.3,1.3,0,0,1,.85.32A1,1,0,0,1,84.93,20.42Zm-3.84-5.94a1.48,1.48,0,0,0-.16-.65.55.55,0,0,0-.52-.34,1.36,1.36,0,0,0-.88.28,2.37,2.37,0,0,0-.59.7,4.24,4.24,0,0,0-.37.91,3.93,3.93,0,0,0-.15.9c.22-.05.48-.11.79-.2a5.12,5.12,0,0,0,.88-.32,2.66,2.66,0,0,0,.71-.52A1.09,1.09,0,0,0,81.09,14.48Z"/><path class="cls-1" d="M94.09,15.67a1.29,1.29,0,0,1-.57-.06c-.16,0-.31-.12-.47-.18l-.43-.18a.91.91,0,0,0-.47-.06,1.57,1.57,0,0,0-.84.26,2.94,2.94,0,0,0-.66.61,3.71,3.71,0,0,0-.51.81,4.21,4.21,0,0,0-.33.89,4.68,4.68,0,0,0-.11.88c0,.4,0,.82,0,1.27s0,.92,0,1.34a8.24,8.24,0,0,1,0,1,5.86,5.86,0,0,1-.12.91,4.3,4.3,0,0,1-.29,1,2.44,2.44,0,0,1-.53.78,1.21,1.21,0,0,1-.86.31,1.08,1.08,0,0,1-.7-.24,2,2,0,0,1-.49-.64,3.84,3.84,0,0,1-.33-.94,9.14,9.14,0,0,1-.21-1.09c0-.38-.08-.77-.1-1.16s0-.75,0-1.1,0-.67,0-1,0-.52,0-.7c0-.57,0-1.14-.08-1.71s-.06-1.14-.06-1.71c0-.36,0-.75,0-1.19a4.42,4.42,0,0,1,.26-1.22,2.44,2.44,0,0,1,.63-1,1.58,1.58,0,0,1,1.14-.39,1,1,0,0,1,.69.27,2.18,2.18,0,0,1,.46.65,3.84,3.84,0,0,1,.27.83,4.2,4.2,0,0,1,.12.8,6,6,0,0,1,1.28-1.54,3,3,0,0,1,1.85-.64,3.84,3.84,0,0,1,1.12.11,3.08,3.08,0,0,1,1,.43,2.5,2.5,0,0,1,.76.79,2.31,2.31,0,0,1,.32,1.14,1.36,1.36,0,0,1-.45,1.19A1.94,1.94,0,0,1,94.09,15.67Z"/><path class="cls-2" d="M56.61,5.62c-1.19-1.1-4.84.35-5.1.45l-.19.08a.47.47,0,0,0,.1-.11c.17-.19,2.83-3.19,2.09-4.58a1.11,1.11,0,0,0-1-.57c-1.65,0-3.17,3.53-3.27,3.78l-.08.18c0-.06,0-.11,0-.14,0-.25-.35-4.18-1.9-4.66a1.14,1.14,0,0,0-1.13.28c-1.15,1.14.36,4.66.47,4.9a1.42,1.42,0,0,0,.08.18l-.11-.09c-.2-.16-3.32-2.72-4.77-2a1.1,1.1,0,0,0-.6,1c0,1.58,3.68,3,3.94,3.14l.19.07h-.15c-.26,0-4.34.34-4.85,1.83a1,1,0,0,0,.3,1.09c1.18,1.1,4.84-.35,5.09-.45l.19-.08L45.8,10c-.18.19-2.83,3.19-2.09,4.58a1.13,1.13,0,0,0,1,.58c1.65,0,3.17-3.54,3.27-3.79l.08-.18a.53.53,0,0,0,0,.14c0,.25.34,4.18,1.89,4.66a1.16,1.16,0,0,0,1.14-.28c1.14-1.14-.36-4.66-.47-4.9l-.08-.18.11.09c.2.17,3.32,2.72,4.77,2a1.07,1.07,0,0,0,.59-1c0-1.58-3.68-3-3.93-3.14l-.19-.07h.14c.27,0,4.35-.34,4.85-1.83A1,1,0,0,0,56.61,5.62Z"/><ellipse class="cls-2" cx="48.46" cy="8.07" rx="1.65" ry="1.58"/></g></g></svg>